<mxfile host="app.diagrams.net" modified="2024-08-12T16:29:16.499Z" agent="Mozilla/5.0 (Macintosh; Intel Mac OS X 10_15_7) AppleWebKit/537.36 (KHTML, like Gecko) Chrome/127.0.0.0 Safari/537.36" version="24.6.4" etag="6PAm17lf0QpJ79VXcHh7" type="github">
  <diagram name="Page-1" id="-u9YifcIpSzV-jzgL01A">
    <mxGraphModel>
      <root>
        <mxCell id="0" />
        <mxCell id="1" parent="0" />
      </root>
    </mxGraphModel>
  </diagram>
</mxfile>
